# xmcd
#
# Track frame offsets:
#	150
#	15341
#	32432
#	48019
#	68129
#	85305
#	99187
#	118422
#	130473
#	140903
#	159975
#	177122
#	196670
#
# Disc length: 2908 seconds
#
# Revision: 1
# Processed by: cddbd v1.4b42PL1 Copyright (c) Steve Scherf et al.
# Submitted via: audiograbber 1.80.04
#
DISCID=a20b5a0d
DTITLE=Jennie Dieball - The Dream
DYEAR=2001
DGENRE=Country
TTITLE0=Listen To My Song
TTITLE1=The Dream
TTITLE2=Gently
TTITLE3=Tell Me Is It You
TTITLE4=Morning
TTITLE5=All These Years
TTITLE6=15 Bottles Of Wine
TTITLE7=The Drunker You Get
TTITLE8=Squished Possum
TTITLE9=One Damn Thing
TTITLE10=Jesse
TTITLE11=Skinner's Gold
TTITLE12=Heaven Tool My Cowboy
EXTD=© 2001 Jennie Dieball\n
EXTT0=
EXTT1=
EXTT2=
EXTT3=
EXTT4=
EXTT5=
EXTT6=
EXTT7=
EXTT8=
EXTT9=
EXTT10=
EXTT11=
EXTT12=
PLAYORDER=
